Coordinates
version=1
nRows=5
nColumns=42
inDegrees=yes

Units are S.I. units (second, meters, Newtons, ...)
If the header above contains a line with 'inDegrees', this indicates whether rotational values are in degrees (yes) or radians (no).

endheader
time	pelvis_tilt	pelvis_list	pelvis_rotation	pelvis_tx	pelvis_ty	pelvis_tz	hip_flexion_r	hip_adduction_r	hip_rotation_r	knee_angle_r	knee_angle_r_beta	ankle_angle_r	subtalar_angle_r	mtp_angle_r	hip_flexion_l	hip_adduction_l	hip_rotation_l	knee_angle_l	knee_angle_l_beta	ankle_angle_l	subtalar_angle_l	mtp_angle_l	lumbar_extension	lumbar_bending	lumbar_rotation	sh_tx_r	sh_ty_r	sh_tz_r	sh_plane_elev_r	sh_elev_r	sh_axial_rot_r	elbow_flex_r	pro_sup_r	sh_tx_l	sh_ty_l	sh_tz_l	sh_plane_elev_l	sh_elev_l	sh_axial_rot_l	elbow_flex_l	pro_sup_l
      0.00000000	     -2.78892007	     -2.51650451	     -0.43100435	      0.33136364	      0.93016755	     -0.07417622	      6.27463481	     -4.34691282	      0.05139166	      7.79897645	      0.13611782	     -0.29062542	     -4.73568092	     -5.00613103	      2.09538027	     -5.27832024	     -6.18386283	      5.90691748	      0.10309516	     14.21158592	     -1.38627990	     -5.00613103	     -3.11193959	      1.66839137	     -1.73720408	     -0.00633738	     -0.01809332	     -0.00556123	      3.68522579	      5.73700386	     -1.32445124	     25.22531203	     78.57955407	     -0.00616390	     -0.01646657	     -0.00408490	     13.56142419	      6.07104485	     -0.30208366	     23.02105058	     71.54660163
      0.01666670	     -4.53586445	     -2.07243799	     -0.27618859	      0.33433283	      0.92720915	     -0.07452841	      6.77058789	     -4.75531708	     -0.22880608	      5.85240532	      0.10214374	      2.66475440	      0.69143755	     -4.80197540	      3.76509366	     -4.58927737	     -7.24994884	      5.04365022	      0.08802830	     13.81451514	      0.57434619	     -4.80197540	      0.09539604	      1.09169207	     -2.79006518	     -0.00939799	     -0.01788106	     -0.00613580	      0.61878457	      4.31034482	     -3.89507251	     23.79754911	     78.42974561	     -0.01008617	     -0.01545979	     -0.00455018	     11.11268980	      4.89421427	     -2.91775600	     21.21847681	     71.58916943
      0.03333330	     -4.89299057	     -1.47867525	     -0.28749177	      0.33529083	      0.92664427	     -0.07435348	      6.29460543	     -5.57833208	     -0.73234619	      4.22022771	      0.07365687	      2.99008870	      2.00931274	     -4.88538969	      3.68978220	     -4.00258305	     -8.68084515	      4.30705538	      0.07517230	     13.18254278	      1.88267118	     -4.88538969	      0.46854970	      0.23339461	     -3.30728853	     -0.00968011	     -0.01796611	     -0.00610591	     -1.87230845	      3.50101370	     -4.37884114	     24.09168253	     77.11940448	     -0.01343353	     -0.01596452	     -0.00445987	      9.50752082	      4.94637292	     -3.59923188	     21.13332796	     71.46742611
      0.05000000	     -4.52112030	     -1.15246207	     -0.12403227	      0.33928632	      0.92713311	     -0.07914943	      5.33618472	     -6.17874080	     -0.86854958	      3.39226295	      0.05920616	      3.68667729	      2.96711129	     -5.44565785	      2.43082880	     -3.40006128	     -8.90890431	      3.00667085	      0.05247631	     12.55996440	      2.29274785	     -5.44565785	      0.17042072	     -0.12468493	     -3.15854249	     -0.01080055	     -0.01808590	     -0.00620924	     -8.85350675	      2.71160235	      0.25554356	     24.65273806	     75.57285165	     -0.01508486	     -0.01633858	     -0.00439860	      6.19235940	      4.67303279	     -0.30438282	     21.52173994	     73.73710930
      0.06666670	     -4.20334664	     -1.05740580	      0.02663078	      0.33862334	      0.92771742	     -0.07956029	      4.87272903	     -6.37269783	     -0.79993258	      3.34102579	      0.05831190	      4.32560659	      3.31423035	     -5.59060672	      1.84565980	     -3.16168068	     -9.00032862	      2.64116705	      0.04609706	     12.63313452	      2.70437319	     -5.59060672	     -0.32196604	     -0.12063546	     -3.21463528	     -0.00988940	     -0.01625439	     -0.00579427	     -7.16139253	      3.19656281	      2.13482290	     24.69435685	     74.79327107	     -0.01574563	     -0.01387652	     -0.00488126	      8.09685529	      5.01400424	      1.23320257	     21.68420767	     73.28953384
